<svg width="64" height="65" viewBox="0 0 64 65" fill="none" xmlns="http://www.w3.org/2000/svg">
<path d="M58.7919 27.7887C61.4627 24.6471 63.2527 20.8486 63.9346 16.7931C63.9346 16.736 63.8494 16.6218 63.7641 16.5647C63.6789 16.5075 63.6505 16.5075 63.6221 16.5647C59.9852 26.4749 54.047 31.4157 45.6937 34.8429C45.3527 33.4721 45.0402 32.0726 44.8129 30.6732C48.0235 29.7878 51.1489 28.5027 53.6776 26.6463C56.4337 24.6185 58.7351 22.0196 60.4114 19.0208C61.9741 16.2791 63.1106 13.2803 63.7925 10.1958C63.963 9.45328 63.8778 9.19625 63.6221 8.99633L63.5084 8.91065C63.3948 8.82497 63.3379 8.91065 63.3095 9.05345C63.139 9.796 62.9117 10.5386 62.6276 11.2811C59.3033 20.2203 54.0186 25.6181 44.4435 27.8458C44.3015 26.275 44.2447 24.6756 44.3299 23.1049C51.0637 21.6769 56.7462 16.9645 59.8432 10.8527C61.2638 7.99674 62.3151 4.9694 62.997 1.85639C63.0822 1.57079 62.9686 1.22807 62.7128 1.05671C62.656 0.999592 62.5708 0.971032 62.4855 0.971032C62.3151 0.885353 62.1446 0.856793 61.9741 0.913913C58.8771 1.59935 55.8654 2.65606 53.0242 4.08405C46.9439 7.1685 42.3126 12.8805 40.8351 19.592C39.2725 19.6491 37.6813 19.6206 36.1187 19.4778C38.3348 9.91024 43.6764 4.62668 52.5696 1.31375C53.2799 1.02815 54.0186 0.799674 54.7857 0.628315C54.8994 0.599755 55.013 0.514076 54.9278 0.428397L54.8426 0.314158C54.6437 0.0571197 54.388 0 53.6492 0.142799C50.5807 0.828233 47.6258 1.97062 44.8697 3.54141C41.8864 5.22644 39.3009 7.53978 37.2836 10.3101C35.4652 12.8233 34.1866 15.9364 33.3058 19.1065C31.9136 18.878 30.5214 18.5639 29.1576 18.2211C32.5671 9.88168 37.4825 3.94125 47.3132 0.314158C47.37 0.285598 47.37 0.228478 47.3132 0.171359C47.2564 0.114239 47.1427 0 47.0859 0C43.0513 0.713994 39.244 2.4847 36.1471 5.16932C32.3114 8.42513 29.1576 12.5377 26.7141 17.5357C25.4923 17.1644 24.2706 16.7646 23.0773 16.3647C19.4405 15.0796 10.0643 10.767 6.42749 7.62546C5.29099 6.65443 4.75115 6.51163 4.12607 6.94002C3.81353 7.22562 3.50099 7.51122 3.24528 7.85394C1.82465 9.88168 0.716557 12.1665 0.00624175 14.5655C-0.0505834 14.7654 0.290367 14.9653 0.631319 14.8225C2.30766 14.0514 9.6097 17.2501 11.7406 18.1069C13.1045 18.6495 14.4967 19.135 15.8889 19.592C18.787 20.563 21.7135 21.4484 24.6968 22.1624C24.5263 22.6193 24.3558 23.1049 24.1854 23.5904C23.6739 25.0755 23.2762 26.5606 22.9068 28.0457C15.8889 26.989 9.95065 25.1897 6.05813 23.5618C3.38734 22.448 1.68258 22.1624 0.517668 22.7907C0.31878 22.9049 0.119892 23.2477 0.20513 23.7617C0.517668 25.4753 1.05751 27.1318 1.82465 28.7026C2.47814 30.0163 2.8475 29.5879 3.47258 29.4451C4.35337 29.2452 5.40464 29.5022 6.2286 29.6736C7.87653 29.9878 9.52446 30.4162 11.144 30.7589C14.7524 31.53 18.4176 32.0155 22.1112 32.244C21.7987 34.2432 21.5998 36.1852 21.4862 38.0416C21.0032 38.0131 20.5486 38.0131 20.0939 37.9845C14.724 37.6703 8.64367 36.1852 6.6832 35.6426C6.48431 35.5855 6.48431 36.1567 6.62638 36.2995C7.50717 37.2991 9.21192 39.0698 9.6097 39.4982C10.5473 40.612 11.7975 41.4117 13.1613 41.8401C14.9229 42.4113 16.7697 42.5255 18.5881 42.5826C19.4405 42.6112 20.3781 42.6397 21.3441 42.6112C21.3441 43.6108 21.3441 44.5818 21.4009 45.4672C21.4578 47.295 21.5714 49.1799 22.1397 50.9221C22.5658 52.2929 23.3898 53.5496 24.4695 54.492C24.8957 54.8919 26.6857 56.6055 27.6517 57.4623C27.7938 57.6051 28.362 57.6051 28.3052 57.4051C27.7938 55.406 26.2879 49.3227 25.9754 43.9249C25.9469 43.4394 25.9185 42.9253 25.8901 42.4398C27.7369 42.3256 29.669 42.1257 31.6579 41.8115C31.8852 45.5528 32.3682 49.2656 33.1353 52.9213C33.4763 54.5777 33.9025 56.2056 34.215 57.8907C34.3855 58.7475 34.6696 59.7756 34.4423 60.661C34.3003 61.2893 33.8741 61.6605 35.181 62.3174C36.7437 63.0885 38.3917 63.6312 40.0964 63.9453C40.6363 64.031 40.9772 63.8311 41.0624 63.6312C41.6875 62.4317 41.4034 60.7466 40.2953 58.0049C38.6758 54.0922 36.8574 48.0947 35.8061 41.0118C37.3404 40.6406 38.8463 40.2122 40.3521 39.6981C40.8067 39.5553 41.2329 39.3839 41.6591 39.2126C42.3694 42.2113 43.2502 45.1816 44.2162 48.1232C44.6708 49.5226 45.1823 50.9221 45.7221 52.2929C46.5461 54.4064 49.7283 61.7462 48.9896 63.4598C48.8475 63.8025 49.018 64.1452 49.2453 64.0881C51.6319 63.3741 53.8765 62.2889 55.8938 60.8323C56.2348 60.5753 56.5473 60.2897 56.803 59.947C57.2292 59.3472 57.0872 58.776 56.1211 57.6336C53.0242 53.978 48.7054 44.5818 47.4553 40.8976C47.0291 39.6695 46.6313 38.4415 46.2904 37.1848C51.433 34.8715 55.5245 31.7013 58.7919 27.7887ZM52.0297 6.68299C54.5868 4.6838 57.5702 3.25581 60.6103 2.25622L62.1162 1.77071C61.9741 2.25622 61.8321 2.71318 61.6616 3.19869C60.6387 6.28315 59.2465 9.28192 57.2576 11.8237C54.047 15.9649 49.6146 18.1926 44.8129 19.0779C45.7221 14.3084 47.9383 9.91024 52.0297 6.68299ZM40.2953 23.6475C40.1817 25.0755 40.1817 26.5035 40.2101 27.96C40.2101 28.1599 40.2101 28.3313 40.2385 28.5312C38.5621 28.7026 36.829 28.8168 35.0958 28.8739C35.1526 27.1318 35.2663 25.3896 35.4368 23.7046L36.0902 23.7332C37.5109 23.7617 38.9031 23.7332 40.2953 23.6475ZM27.6233 22.7907C29.186 23.0763 30.7487 23.3333 32.3398 23.5047C32.0272 25.3896 31.7999 27.2175 31.6863 28.8739C30.1804 28.8168 28.6746 28.7311 27.1971 28.5883C26.9414 28.5598 26.7141 28.5312 26.4584 28.5027C26.7141 26.5891 27.1119 24.6756 27.6233 22.7907ZM25.8049 38.213C25.8049 36.3566 25.8617 34.4145 26.0322 32.4725C27.8506 32.5296 29.6974 32.501 31.5158 32.4725C31.4874 34.3003 31.459 36.1567 31.5158 37.9845C29.5838 38.1273 27.6517 38.213 25.8049 38.213ZM35.4368 37.5847C35.4083 37.3562 35.3799 37.1563 35.3799 36.9278C35.2379 35.4141 35.1526 33.8719 35.0958 32.3297C36.7721 32.2154 38.5621 31.9869 40.4374 31.6728C40.6078 33.2721 40.8351 34.8429 41.1193 36.4137C39.244 36.9278 37.3688 37.2991 35.4368 37.5847Z" fill="url(#paint0_linear_161_3775)"/>
<defs>
<linearGradient id="paint0_linear_161_3775" x1="16.9755" y1="47.1202" x2="63.0183" y2="1.3147" gradientUnits="userSpaceOnUse">
<stop stop-color="#1751A4"/>
<stop offset="0.52" stop-color="#307F75"/>
<stop offset="1" stop-color="#49AB48"/>
</linearGradient>
</defs>
</svg>
