<svg width="59" height="59" viewBox="0 0 59 59" fill="none" xmlns="http://www.w3.org/2000/svg">
<path d="M8.4054 39.2496C8.4054 38.3487 9.13569 37.6184 10.0366 37.6184H32.8736C33.7745 37.6184 34.5048 38.3487 34.5048 39.2496C34.5048 40.1505 33.7745 40.8808 32.8736 40.8808H10.0366C9.13569 40.8808 8.4054 40.1505 8.4054 39.2496Z" fill="#13182B"/>
<path d="M8.4054 23.6312C8.4054 22.7303 8.74117 22 9.1554 22H19.6554C20.0696 22 20.4054 22.7303 20.4054 23.6312C20.4054 24.5321 20.0696 25.2624 19.6554 25.2624H9.1554C8.74117 25.2624 8.4054 24.5321 8.4054 23.6312Z" fill="#13182B"/>
<path d="M10.0366 45.7744C9.13569 45.7744 8.4054 46.5047 8.4054 47.4056C8.4054 48.3065 9.13569 49.0368 10.0366 49.0368H32.8736C33.7745 49.0368 34.5048 48.3065 34.5048 47.4056C34.5048 46.5047 33.7745 45.7744 32.8736 45.7744H10.0366Z" fill="#13182B"/>
<path d="M10.0366 30.156C9.13569 30.156 8.4054 30.8863 8.4054 31.7872C8.4054 32.6881 9.13569 33.4184 10.0366 33.4184H32.8736C33.7745 33.4184 34.5048 32.6881 34.5048 31.7872C34.5048 30.8863 33.7745 30.156 32.8736 30.156H10.0366Z" fill="#13182B"/>
<path fill-rule="evenodd" clip-rule="evenodd" d="M14.9303 0.100586C12.2275 0.100586 10.0367 2.29155 10.0367 4.99422H5.14303C2.44035 4.99422 0.24939 7.18511 0.24939 9.88786V53.9306C0.24939 56.6334 2.44035 58.8242 5.14303 58.8242H37.7673C40.47 58.8242 42.6609 56.6334 42.6609 53.9306V9.88786C42.6609 7.18511 40.47 4.99422 37.7673 4.99422H32.8736C32.8736 2.29155 30.6828 0.100586 27.98 0.100586H14.9303ZM27.98 9.88786C28.8809 9.88786 29.6112 9.15757 29.6112 8.25665V4.99422C29.6112 4.09334 28.8809 3.36301 27.98 3.36301H14.9303C14.0294 3.36301 13.2991 4.09334 13.2991 4.99422V8.25665C13.2991 9.15757 14.0294 9.88786 14.9303 9.88786H27.98ZM10.0367 8.25665C10.0367 10.9594 12.2275 13.1503 14.9303 13.1503H27.98C30.6828 13.1503 32.8736 10.9594 32.8736 8.25665H37.7673C38.6682 8.25665 39.3985 8.98694 39.3985 9.88786V53.9306C39.3985 54.8315 38.6682 55.5618 37.7673 55.5618H5.14303C4.24214 55.5618 3.51181 54.8315 3.51181 53.9306V9.88786C3.51181 8.98694 4.24214 8.25665 5.14303 8.25665H10.0367Z" fill="#13182B"/>
<path fill-rule="evenodd" clip-rule="evenodd" d="M49.1858 18.044C49.1858 15.3413 51.3767 13.1504 54.0794 13.1504C56.7822 13.1504 58.9731 15.3413 58.9731 18.044V51.1622L54.0794 58.5027L49.1858 51.1622V18.044ZM54.0794 16.4128C53.1785 16.4128 52.4482 17.1431 52.4482 18.044V21.3065H55.7106V18.044C55.7106 17.1431 54.9803 16.4128 54.0794 16.4128ZM54.0794 52.6212L55.7106 50.1744V24.5689H52.4482V50.1744L54.0794 52.6212Z" fill="#13182B"/>
</svg>
